<?xml version="1.0" encoding="UTF-8" standalone="no"?>
<!-- Created with Inkscape (http://www.inkscape.org/) -->

<svg
   version="1.1"
   id="svg2"
   width="114.45333"
   height="32.279999"
   viewBox="0 0 114.45333 32.279999"
   sodipodi:docname="inese-seeklogo.eps"
   xmlns:inkscape="http://www.inkscape.org/namespaces/inkscape"
   xmlns:sodipodi="http://sodipodi.sourceforge.net/DTD/sodipodi-0.dtd"
   xmlns="http://www.w3.org/2000/svg"
   xmlns:svg="http://www.w3.org/2000/svg">
  <defs
     id="defs6" />
  <sodipodi:namedview
     id="namedview4"
     pagecolor="#ffffff"
     bordercolor="#000000"
     borderopacity="0.25"
     inkscape:showpageshadow="2"
     inkscape:pageopacity="0.0"
     inkscape:pagecheckerboard="0"
     inkscape:deskcolor="#d1d1d1" />
  <g
     id="g8"
     inkscape:groupmode="layer"
     inkscape:label="ink_ext_XXXXXX"
     transform="matrix(1.3333333,0,0,-1.3333333,0,32.28)">
    <g
       id="g10"
       transform="scale(0.1)">
      <path
         d="M 267.445,7.70703 H 232.27 V 126.703 c 0,9.594 -0.508,18.516 -1.504,26.762 -0.879,8.324 -2.625,15.023 -5.243,20.019 -2.871,5.227 -6.855,9.086 -11.972,11.594 -5.11,2.613 -12.09,3.93 -20.957,3.93 -8.731,0 -17.766,-2.379 -27.129,-7.121 -9.231,-4.621 -18.281,-10.66 -27.121,-18.145 V 7.70703 H 103.16 V 216.691 h 35.184 V 193.5 c 10.461,9.352 20.832,16.516 31.054,21.496 10.227,4.996 21.008,7.5 32.375,7.5 20.575,0 36.68,-6.816 48.27,-20.394 11.602,-13.477 17.402,-33.055 17.402,-58.743 V 7.70703"
         style="fill:#1b3173;fill-opacity:1;fill-rule:nonzero;stroke:none"
         id="path12" />
      <path
         d="M 267.445,7.70703 H 232.27 V 126.703 c 0,9.594 -0.508,18.516 -1.504,26.762 -0.879,8.324 -2.625,15.023 -5.243,20.019 -2.871,5.227 -6.855,9.086 -11.972,11.594 -5.11,2.613 -12.09,3.93 -20.957,3.93 -8.731,0 -17.766,-2.379 -27.129,-7.121 -9.231,-4.621 -18.281,-10.66 -27.121,-18.145 V 7.70703 H 103.16 V 216.691 h 35.184 V 193.5 c 10.461,9.352 20.832,16.516 31.054,21.496 10.227,4.996 21.008,7.5 32.375,7.5 20.575,0 36.68,-6.816 48.27,-20.394 11.602,-13.477 17.402,-33.055 17.402,-58.743 z"
         style="fill:none;stroke:#1b3173;stroke-width:5.29998;stroke-linecap:butt;stroke-linejoin:miter;stroke-miterlimit:3.864;stroke-dasharray:none;stroke-opacity:1"
         id="path14" />
      <path
         d="m 448.746,135.5 c -0.246,9.461 -1.387,17.637 -3.351,24.512 -2.02,6.824 -4.891,12.64 -8.622,17.402 -4.132,5.231 -9.433,9.227 -15.91,11.973 -6.347,2.746 -14.277,4.097 -23.769,4.113 -9.336,0 -17.344,-1.445 -23.946,-4.297 -6.492,-2.758 -12.41,-6.82 -17.761,-12.172 -5.246,-5.484 -9.239,-11.593 -11.973,-18.336 -2.746,-6.601 -4.492,-14.359 -5.254,-23.195 z M 407.594,2.84375 c -33.332,0 -59.192,9.33595 -77.656,28.06645 -18.34,18.8281 -27.5,45.5078 -27.5,80.0588 0,34.054 8.925,61.14 26.765,81.23 17.813,20.196 41.133,30.297 69.973,30.297 12.957,0 24.433,-1.879 34.402,-5.625 9.973,-3.734 18.723,-9.594 26.211,-17.562 7.481,-8.008 13.234,-17.786 17.219,-29.399 3.984,-11.472 5.984,-25.574 5.984,-42.269 V 108.555 H 338.16 c 0,-24.305 6.113,-42.9183 18.34,-55.7503 12.227,-12.8828 29.129,-19.2656 50.711,-19.2656 7.727,0 15.273,0.8672 22.656,2.6172 7.461,1.7265 14.211,3.9609 20.196,6.7265 6.347,2.8516 11.73,5.6055 16.085,8.2227 4.356,2.7539 7.977,5.2929 10.86,7.6758 h 2.039 v -38.379 c -4.09,-1.621 -9.238,-3.6718 -15.313,-6.1601 C 457.602,11.875 452.105,10 447.25,8.63281 440.375,6.76953 434.156,5.33594 428.551,4.32813 423.051,3.33203 416.07,2.84375 407.594,2.84375"
         style="fill:#1b3173;fill-opacity:1;fill-rule:evenodd;stroke:none"
         id="path16" />
      <path
         d="m 448.746,135.5 c -0.246,9.461 -1.387,17.637 -3.351,24.512 -2.02,6.824 -4.891,12.64 -8.622,17.402 -4.132,5.231 -9.433,9.227 -15.91,11.973 -6.347,2.746 -14.277,4.097 -23.769,4.113 -9.336,0 -17.344,-1.445 -23.946,-4.297 -6.492,-2.758 -12.41,-6.82 -17.761,-12.172 -5.246,-5.484 -9.239,-11.593 -11.973,-18.336 -2.746,-6.601 -4.492,-14.359 -5.254,-23.195 z M 407.594,2.84375 c -33.332,0 -59.192,9.33595 -77.656,28.06645 -18.34,18.8281 -27.5,45.5078 -27.5,80.0588 0,34.054 8.925,61.14 26.765,81.23 17.813,20.196 41.133,30.297 69.973,30.297 12.957,0 24.433,-1.879 34.402,-5.625 9.973,-3.734 18.723,-9.594 26.211,-17.562 7.481,-8.008 13.234,-17.786 17.219,-29.399 3.984,-11.472 5.984,-25.574 5.984,-42.269 V 108.555 H 338.16 c 0,-24.305 6.113,-42.9183 18.34,-55.7503 12.227,-12.8828 29.129,-19.2656 50.711,-19.2656 7.727,0 15.273,0.8672 22.656,2.6172 7.461,1.7265 14.211,3.9609 20.196,6.7265 6.347,2.8516 11.73,5.6055 16.085,8.2227 4.356,2.7539 7.977,5.2929 10.86,7.6758 h 2.039 v -38.379 c -4.09,-1.621 -9.238,-3.6718 -15.313,-6.1601 C 457.602,11.875 452.105,10 447.25,8.63281 440.375,6.76953 434.156,5.33594 428.551,4.32813 423.051,3.33203 416.07,2.84375 407.594,2.84375 Z"
         style="fill:none;stroke:#1b3173;stroke-width:5.29998;stroke-linecap:butt;stroke-linejoin:miter;stroke-miterlimit:3.864;stroke-dasharray:none;stroke-opacity:1"
         id="path18" />
      <path
         d="m 575.043,2.64844 c -13.973,0 -27.07,1.85547 -39.297,5.60547 -12.098,3.74999 -22.148,7.75389 -30.117,11.97269 v 39.4922 h 1.855 c 3.008,-2.3829 6.516,-4.9922 10.5,-7.8516 4.11,-2.8906 9.539,-5.8789 16.27,-8.9844 5.996,-2.7422 12.527,-5.1953 19.648,-7.3047 7.235,-2.1289 14.715,-3.1836 22.461,-3.1836 5.606,0 11.59,0.6446 17.957,1.8633 6.348,1.3789 11.106,3.0703 14.231,5.0703 4.344,2.8711 7.48,5.9375 9.336,9.1407 2,3.2617 2.996,8.1171 2.996,14.6093 0,8.3672 -2.305,14.6485 -6.903,18.8985 -4.511,4.2343 -12.558,7.789 -24.152,10.6523 -4.492,1.1445 -10.351,2.4414 -17.578,3.9336 -7.254,1.4961 -13.926,3.1172 -20.02,4.8945 -15.976,4.574 -27.578,11.699 -34.824,21.309 -7.234,9.746 -10.84,21.445 -10.84,35.191 0,18.809 7.102,34.176 21.34,46.02 14.207,11.828 33.106,17.765 56.688,17.781 11.601,0 23.254,-1.445 34.972,-4.309 11.727,-2.886 21.59,-6.5 29.579,-10.855 v -37.621 h -1.875 c -8.985,7.105 -19.032,12.73 -30.118,16.843 -10.984,4.114 -22.089,6.188 -33.308,6.188 -11.594,0 -21.387,-2.441 -29.375,-7.305 -7.989,-4.871 -11.985,-12.226 -11.985,-22.074 0,-8.727 2.364,-15.289 7.11,-19.664 4.746,-4.238 12.336,-7.703 22.832,-10.449 5.246,-1.391 11.035,-2.746 17.402,-4.114 6.496,-1.257 13.274,-2.761 20.402,-4.507 15.45,-3.868 27.059,-10.286 34.786,-19.27 7.859,-8.9726 11.804,-21.2226 11.804,-36.6796 0,-8.9726 -1.816,-17.5195 -5.437,-25.6445 C 647.895,34.3281 642.699,27.4727 635.855,21.7305 628.363,15.5 619.887,10.7422 610.406,7.49219 601.051,4.26953 589.273,2.64844 575.043,2.64844"
         style="fill:#1b3173;fill-opacity:1;fill-rule:nonzero;stroke:none"
         id="path20" />
      <path
         d="m 575.043,2.64844 c -13.973,0 -27.07,1.85547 -39.297,5.60547 -12.098,3.74999 -22.148,7.75389 -30.117,11.97269 v 39.4922 h 1.855 c 3.008,-2.3829 6.516,-4.9922 10.5,-7.8516 4.11,-2.8906 9.539,-5.8789 16.27,-8.9844 5.996,-2.7422 12.527,-5.1953 19.648,-7.3047 7.235,-2.1289 14.715,-3.1836 22.461,-3.1836 5.606,0 11.59,0.6446 17.957,1.8633 6.348,1.3789 11.106,3.0703 14.231,5.0703 4.344,2.8711 7.48,5.9375 9.336,9.1407 2,3.2617 2.996,8.1171 2.996,14.6093 0,8.3672 -2.305,14.6485 -6.903,18.8985 -4.511,4.2343 -12.558,7.789 -24.152,10.6523 -4.492,1.1445 -10.351,2.4414 -17.578,3.9336 -7.254,1.4961 -13.926,3.1172 -20.02,4.8945 -15.976,4.574 -27.578,11.699 -34.824,21.309 -7.234,9.746 -10.84,21.445 -10.84,35.191 0,18.809 7.102,34.176 21.34,46.02 14.207,11.828 33.106,17.765 56.688,17.781 11.601,0 23.254,-1.445 34.972,-4.309 11.727,-2.886 21.59,-6.5 29.579,-10.855 v -37.621 h -1.875 c -8.985,7.105 -19.032,12.73 -30.118,16.843 -10.984,4.114 -22.089,6.188 -33.308,6.188 -11.594,0 -21.387,-2.441 -29.375,-7.305 -7.989,-4.871 -11.985,-12.226 -11.985,-22.074 0,-8.727 2.364,-15.289 7.11,-19.664 4.746,-4.238 12.336,-7.703 22.832,-10.449 5.246,-1.391 11.035,-2.746 17.402,-4.114 6.496,-1.257 13.274,-2.761 20.402,-4.507 15.45,-3.868 27.059,-10.286 34.786,-19.27 7.859,-8.9726 11.804,-21.2226 11.804,-36.6796 0,-8.9726 -1.816,-17.5195 -5.437,-25.6445 C 647.895,34.3281 642.699,27.4727 635.855,21.7305 628.363,15.5 619.887,10.7422 610.406,7.49219 601.051,4.26953 589.273,2.64844 575.043,2.64844 Z"
         style="fill:none;stroke:#1b3173;stroke-width:5.29998;stroke-linecap:butt;stroke-linejoin:miter;stroke-miterlimit:3.864;stroke-dasharray:none;stroke-opacity:1"
         id="path22" />
      <path
         d="m 821.461,135.5 c -0.254,9.461 -1.359,17.637 -3.359,24.512 -2.024,6.824 -4.864,12.64 -8.606,17.402 -4.121,5.231 -9.414,9.227 -15.918,11.973 -6.348,2.746 -14.265,4.097 -23.75,4.113 -9.363,0 -17.332,-1.445 -23.953,-4.297 -6.484,-2.758 -12.402,-6.82 -17.773,-12.172 -5.235,-5.484 -9.239,-11.593 -11.985,-18.336 -2.734,-6.601 -4.472,-14.359 -5.222,-23.195 z M 780.309,2.84375 c -33.313,0 -59.192,9.33595 -77.657,28.06645 -18.339,18.8281 -27.5,45.5078 -27.5,80.0588 0,34.054 8.926,61.14 26.758,81.23 17.82,20.196 41.133,30.297 69.969,30.297 12.969,0 24.453,-1.879 34.434,-5.625 9.992,-3.734 18.703,-9.594 26.203,-17.562 7.461,-8.008 13.211,-17.786 17.207,-29.399 3.984,-11.472 5.984,-25.574 5.984,-42.269 V 108.555 H 710.895 c 0,-24.305 6.093,-42.9183 18.32,-55.7503 12.226,-12.8828 29.121,-19.2656 50.711,-19.2656 7.715,0 15.273,0.8672 22.648,2.6172 7.469,1.7265 14.219,3.9609 20.203,6.7265 6.368,2.8516 11.719,5.6055 16.086,8.2227 4.383,2.7539 7.989,5.2929 10.86,7.6758 h 2.05 V 20.4023 C 847.66,18.7813 842.555,16.7305 836.441,14.2422 830.316,11.875 824.828,10 819.965,8.63281 813.09,6.76953 806.871,5.33594 801.266,4.32813 795.777,3.33203 788.785,2.84375 780.309,2.84375"
         style="fill:#1b3173;fill-opacity:1;fill-rule:evenodd;stroke:none"
         id="path24" />
      <path
         d="m 821.461,135.5 c -0.254,9.461 -1.359,17.637 -3.359,24.512 -2.024,6.824 -4.864,12.64 -8.606,17.402 -4.121,5.231 -9.414,9.227 -15.918,11.973 -6.348,2.746 -14.265,4.097 -23.75,4.113 -9.363,0 -17.332,-1.445 -23.953,-4.297 -6.484,-2.758 -12.402,-6.82 -17.773,-12.172 -5.235,-5.484 -9.239,-11.593 -11.985,-18.336 -2.734,-6.601 -4.472,-14.359 -5.222,-23.195 z M 780.309,2.84375 c -33.313,0 -59.192,9.33595 -77.657,28.06645 -18.339,18.8281 -27.5,45.5078 -27.5,80.0588 0,34.054 8.926,61.14 26.758,81.23 17.82,20.196 41.133,30.297 69.969,30.297 12.969,0 24.453,-1.879 34.434,-5.625 9.992,-3.734 18.703,-9.594 26.203,-17.562 7.461,-8.008 13.211,-17.786 17.207,-29.399 3.984,-11.472 5.984,-25.574 5.984,-42.269 V 108.555 H 710.895 c 0,-24.305 6.093,-42.9183 18.32,-55.7503 12.226,-12.8828 29.121,-19.2656 50.711,-19.2656 7.715,0 15.273,0.8672 22.648,2.6172 7.469,1.7265 14.219,3.9609 20.203,6.7265 6.368,2.8516 11.719,5.6055 16.086,8.2227 4.383,2.7539 7.989,5.2929 10.86,7.6758 h 2.05 V 20.4023 C 847.66,18.7813 842.555,16.7305 836.441,14.2422 830.316,11.875 824.828,10 819.965,8.63281 813.09,6.76953 806.871,5.33594 801.266,4.32813 795.777,3.33203 788.785,2.84375 780.309,2.84375 Z"
         style="fill:none;stroke:#1b3173;stroke-width:5.29998;stroke-linecap:butt;stroke-linejoin:miter;stroke-miterlimit:3.864;stroke-dasharray:none;stroke-opacity:1"
         id="path26" />
      <path
         d="m 5.30859,198.043 v 38.723 H 43.4336 Z"
         style="fill:none;stroke:#f7911a;stroke-width:10.6184;stroke-linecap:butt;stroke-linejoin:miter;stroke-miterlimit:3.864;stroke-dasharray:none;stroke-opacity:1"
         id="path28" />
      <path
         d="m 5.30859,198.043 v 38.723 H 43.4336 Z"
         style="fill:#f7911a;fill-opacity:1;fill-rule:nonzero;stroke:none"
         id="path30" />
      <path
         d="M 51.5273,7.70703 H 16.3438 V 179.543 l 35.1835,37.148 z"
         style="fill:none;stroke:#1b3173;stroke-width:5.29998;stroke-linecap:butt;stroke-linejoin:miter;stroke-miterlimit:3.864;stroke-dasharray:none;stroke-opacity:1"
         id="path32" />
      <path
         d="M 51.5273,7.70703 H 16.3438 V 179.543 l 35.1835,37.148 V 7.70703"
         style="fill:#1b3173;fill-opacity:1;fill-rule:nonzero;stroke:none"
         id="path34" />
    </g>
  </g>
</svg>
